<?xml version="1.0" encoding="windows-1252"?>
<!-- Generator: Adobe Illustrator 13.0.0, SVG Export Plug-In . SVG Version: 6.00 Build 14948)  -->
<!DOCTYPE svg PUBLIC "-//W3C//DTD SVG 1.1//EN" "http://www.w3.org/Graphics/SVG/1.1/DTD/svg11.dtd">
<svg version="1.1" id="Layer_1" xmlns="http://www.w3.org/2000/svg" xmlns:xlink="http://www.w3.org/1999/xlink" x="0px" y="0px" width="100px" height="100px" viewBox="0 0 100 100" style="enable-background:new 0 0 100 100;" xml:space="preserve">
<g id="Layer_1_1_">
	<circle cx="49.5" cy="49.5" r="47.584"/>
	<g>
		<g>
			<defs>
				<path id="SVGID_1_" d="M49.738,86.357c-20.146,0-36.536-16.39-36.536-36.539c0-20.145,16.39-36.535,36.536-36.535      c20.145,0,36.536,16.39,36.536,36.535C86.273,69.969,69.885,86.357,49.738,86.357L49.738,86.357z"/>
			</defs>
			<clipPath id="SVGID_2_">
				<use xlink:href="#SVGID_1_" style="overflow:visible;"/>
			</clipPath>
			<g style="clip-path:url(#SVGID_2_);">
				<g>
					<rect x="19.945" y="34.87" transform="matrix(0.955 -0.2966 0.2966 0.955 -19.1292 10.5362)" width="10.427" height="66.882"/>
					<rect x="31.603" y="31.249" transform="matrix(0.955 -0.2966 0.2966 0.955 -17.5309 13.831)" width="10.427" height="66.882"/>
					<rect x="43.26" y="27.629" transform="matrix(0.955 -0.2966 0.2966 0.955 -15.9313 17.1241)" width="10.428" height="66.882"/>
					
						<rect x="54.918" y="24.009" transform="matrix(0.955 -0.2966 0.2966 0.955 -14.3332 20.4185)" width="10.428" height="66.882"/>
					<rect x="66.575" y="20.389" transform="matrix(0.955 -0.2966 0.2966 0.955 -12.735 23.7132)" width="10.428" height="66.882"/>
					
						<rect x="78.233" y="16.769" transform="matrix(0.955 -0.2966 0.2966 0.955 -11.1369 27.0076)" width="10.428" height="66.882"/>
				</g>
				<g>
					
						<rect x="19.945" y="34.87" transform="matrix(0.955 -0.2966 0.2966 0.955 -19.1292 10.5362)" style="fill:#FFFFFF;" width="10.427" height="66.882"/>
					
						<rect x="31.603" y="31.249" transform="matrix(0.955 -0.2966 0.2966 0.955 -17.5309 13.831)" style="fill:#FFFFFF;" width="10.427" height="66.882"/>
					
						<rect x="43.26" y="27.629" transform="matrix(0.955 -0.2966 0.2966 0.955 -15.9313 17.1241)" style="fill:#FFFFFF;" width="10.428" height="66.882"/>
					
						<rect x="54.918" y="24.009" transform="matrix(0.955 -0.2966 0.2966 0.955 -14.3332 20.4185)" style="fill:#FFFFFF;" width="10.428" height="66.882"/>
					
						<rect x="66.575" y="20.389" transform="matrix(0.955 -0.2966 0.2966 0.955 -12.735 23.7132)" style="fill:#FFFFFF;" width="10.428" height="66.882"/>
					
						<rect x="78.233" y="16.769" transform="matrix(0.955 -0.2966 0.2966 0.955 -11.1369 27.0076)" style="fill:#FFFFFF;" width="10.428" height="66.882"/>
				</g>
			</g>
			<path style="clip-path:url(#SVGID_2_);" d="M36.292,66.495c0.208,0.672-0.167,1.388-0.84,1.596l-5.093,1.581     c-0.672,0.21-1.387-0.166-1.596-0.839L16.842,30.444c-0.208-0.673,0.167-1.387,0.84-1.596l5.093-1.582     c0.672-0.208,1.387,0.167,1.596,0.84L36.292,66.495z"/>
			<path style="clip-path:url(#SVGID_2_);" d="M23.526,69.801c0.209,0.674-0.167,1.388-0.84,1.597l-5.092,1.581     c-0.673,0.208-1.388-0.167-1.597-0.84L4.076,33.75c-0.209-0.673,0.167-1.388,0.84-1.597l5.092-1.581     c0.673-0.208,1.388,0.167,1.597,0.839L23.526,69.801z"/>
			<path style="clip-path:url(#SVGID_2_);" d="M57.64,59.669c0.208,0.672-0.167,1.387-0.841,1.597l-5.092,1.581     c-0.674,0.208-1.388-0.167-1.597-0.84L38.188,23.618c-0.208-0.673,0.168-1.388,0.841-1.596l5.092-1.582     c0.673-0.209,1.387,0.167,1.596,0.84L57.64,59.669z"/>
			<path style="clip-path:url(#SVGID_2_);" d="M70.137,55.773c0.207,0.674-0.169,1.387-0.841,1.596l-5.092,1.582     c-0.674,0.207-1.389-0.167-1.597-0.841L50.685,19.722c-0.208-0.673,0.168-1.388,0.841-1.597l5.094-1.582     c0.672-0.208,1.386,0.167,1.595,0.84L70.137,55.773z"/>
			<path style="clip-path:url(#SVGID_2_);" d="M82.599,52.006c0.209,0.672-0.166,1.389-0.84,1.598l-5.092,1.58     c-0.673,0.209-1.388-0.166-1.597-0.84l-11.922-38.39c-0.209-0.672,0.168-1.387,0.841-1.596l5.092-1.582     c0.673-0.209,1.388,0.167,1.596,0.84L82.599,52.006z"/>
		</g>
	</g>
	<path style="fill:#FFFFFF;" d="M49.738,6.318c24.028,0,43.505,19.478,43.505,43.505c0,24.026-19.478,43.505-43.505,43.505   c-24.027,0-43.505-19.479-43.505-43.505C6.233,25.796,25.71,6.318,49.738,6.318 M49.738,11.756   c-20.991,0-38.066,17.077-38.066,38.067c0,20.989,17.076,38.067,38.066,38.067c20.991,0,38.067-17.078,38.067-38.067   C87.805,28.833,70.729,11.756,49.738,11.756L49.738,11.756z"/>
</g>
</svg>